<?xml version="1.0" encoding="UTF-8"?>
<!DOCTYPE svg PUBLIC "-//W3C//DTD SVG 1.1//EN" "http://www.w3.org/Graphics/SVG/1.1/DTD/svg11.dtd">
<svg xmlns="http://www.w3.org/2000/svg" version="1.1" width="1024px" height="1024px" style="shape-rendering:geometricPrecision; text-rendering:geometricPrecision; image-rendering:optimizeQuality; fill-rule:evenodd; clip-rule:evenodd" xmlns:xlink="http://www.w3.org/1999/xlink">
<g><path style="opacity:1" fill="#fefefe" d="M -0.5,-0.5 C 340.833,-0.5 682.167,-0.5 1023.5,-0.5C 1023.5,340.833 1023.5,682.167 1023.5,1023.5C 682.167,1023.5 340.833,1023.5 -0.5,1023.5C -0.5,682.167 -0.5,340.833 -0.5,-0.5 Z"/></g>
<g><path style="opacity:1" fill="#ff914d" d="M 34.5,47.5 C 83.8345,47.3333 133.168,47.5 182.5,48C 196.534,51.6992 205.701,60.5326 210,74.5C 214.14,61.0262 222.974,52.1929 236.5,48C 286.861,47.0326 337.195,47.3659 387.5,49C 399.493,53.6603 407.327,62.1603 411,74.5C 415.14,61.0262 423.974,52.1929 437.5,48C 485.833,47.3333 534.167,47.3333 582.5,48C 598.098,50.93 607.931,60.0966 612,75.5C 615.948,60.5514 625.448,51.3848 640.5,48C 688.167,47.3333 735.833,47.3333 783.5,48C 799.139,50.9728 808.972,60.1395 813,75.5C 816.842,60.9912 826.009,51.8245 840.5,48C 888.5,47.3333 936.5,47.3333 984.5,48C 999.698,50.8649 1009.53,59.6982 1014,74.5C 1014.67,125.5 1014.67,176.5 1014,227.5C 1010.95,242.221 1002.11,251.387 987.5,255C 938.167,255.667 888.833,255.667 839.5,255C 825.169,250.667 816.335,241.167 813,226.5C 809.787,241.77 800.62,251.27 785.5,255C 736.167,255.667 686.833,255.667 637.5,255C 624.131,250.3 615.631,241.133 612,227.5C 608.158,242.009 598.991,251.175 584.5,255C 535.167,255.667 485.833,255.667 436.5,255C 423.388,250.611 414.888,241.778 411,228.5C 406.761,242.405 397.594,251.238 383.5,255C 334.167,255.667 284.833,255.667 235.5,255C 221.373,250.606 212.873,241.106 210,226.5C 206.575,241.591 197.409,251.091 182.5,255C 133.167,255.667 83.8333,255.667 34.5,255C 21.6579,251.491 13.4912,243.325 10,230.5C 8.8552,203.539 8.3552,176.539 8.5,149.5C 8.66667,124.167 8.83333,98.8333 9,73.5C 13.0168,60.3175 21.5168,51.6508 34.5,47.5 Z"/></g>
<g><path style="opacity:1" fill="#ffb88c" d="M 180.5,108.5 C 186.979,107.509 193.646,107.176 200.5,107.5C 200.784,109.415 200.451,111.081 199.5,112.5C 199.5,111.167 199.5,109.833 199.5,108.5C 193.167,108.5 186.833,108.5 180.5,108.5 Z"/></g>
<g><path style="opacity:1" fill="#ffba8e" d="M 564.5,108.5 C 576.322,107.505 588.322,107.172 600.5,107.5C 600.784,109.415 600.451,111.081 599.5,112.5C 599.5,111.167 599.5,109.833 599.5,108.5C 587.833,108.5 576.167,108.5 564.5,108.5 Z"/></g>
<g><path style="opacity:1" fill="#fffdfc" d="M 906.5,106.5 C 931.067,105.027 946.9,116.027 954,139.5C 956.48,165.371 946.98,185.537 925.5,200C 914.45,206.953 902.45,209.619 889.5,208C 870.655,203.489 859.822,191.656 857,172.5C 855.422,147.823 864.922,128.657 885.5,115C 892.187,111.057 899.187,108.224 906.5,106.5 Z"/></g>
<g><path style="opacity:1" fill="#fffdfc" d="M 180.5,108.5 C 186.833,108.5 193.167,108.5 199.5,108.5C 199.5,109.833 199.5,111.167 199.5,112.5C 194.347,143.103 189.513,173.769 185,204.5C 178.115,206.441 170.948,207.108 163.5,206.5C 166.817,185.446 169.983,164.446 173,143.5C 163.482,153.383 154.316,163.55 145.5,174C 139.833,174.667 134.167,174.667 128.5,174C 122.208,163.917 116.041,153.75 110,143.5C 106.117,164.409 102.951,185.409 100.5,206.5C 93.1667,206.5 85.8333,206.5 78.5,206.5C 83.7596,173.869 88.7596,141.203 93.5,108.5C 100.508,108.334 107.508,108.5 114.5,109C 123.003,123.653 131.669,138.153 140.5,152.5C 154.225,138.112 167.558,123.446 180.5,108.5 Z"/></g>
<g><path style="opacity:1" fill="#fffdfc" d="M 288.5,108.5 C 296.5,108.5 304.5,108.5 312.5,108.5C 320.352,140.906 328.685,173.239 337.5,205.5C 329.855,206.665 322.188,206.831 314.5,206C 312.596,199.217 310.929,192.384 309.5,185.5C 295.496,185.333 281.496,185.5 267.5,186C 263.248,192.501 259.248,199.168 255.5,206C 247.833,206.667 240.167,206.667 232.5,206C 251.305,173.554 269.972,141.054 288.5,108.5 Z"/></g>
<g><path style="opacity:1" fill="#fffdfd" d="M 404.5,108.5 C 427.176,108.167 449.843,108.5 472.5,109.5C 471.505,114.789 470.672,120.123 470,125.5C 452.167,146 434.333,166.5 416.5,187C 431.83,187.5 447.163,187.667 462.5,187.5C 461.724,193.821 461.058,200.154 460.5,206.5C 435.167,206.5 409.833,206.5 384.5,206.5C 384.671,201.804 385.171,197.137 386,192.5C 404.687,171.314 423.187,149.981 441.5,128.5C 428.183,127.501 414.85,127.167 401.5,127.5C 402.177,121.105 403.177,114.772 404.5,108.5 Z"/></g>
<g><path style="opacity:1" fill="#fffdfb" d="M 564.5,108.5 C 576.167,108.5 587.833,108.5 599.5,108.5C 599.5,109.833 599.5,111.167 599.5,112.5C 598.941,116.853 598.275,121.186 597.5,125.5C 594.881,125.232 592.381,125.565 590,126.5C 586.723,147.163 583.556,167.829 580.5,188.5C 582.833,188.5 585.167,188.5 587.5,188.5C 586.398,194.448 585.731,200.448 585.5,206.5C 573.5,206.5 561.5,206.5 549.5,206.5C 549.514,200.419 550.181,194.419 551.5,188.5C 554.167,188.5 556.833,188.5 559.5,188.5C 562.127,167.778 565.127,147.111 568.5,126.5C 566.167,126.5 563.833,126.5 561.5,126.5C 562.132,120.404 563.132,114.404 564.5,108.5 Z"/></g>
<g><path style="opacity:1" fill="#fffdfc" d="M 688.5,108.5 C 695.755,108.187 702.921,108.52 710,109.5C 722,130.167 734,150.833 746,171.5C 749.333,150.836 752.666,130.169 756,109.5C 763.086,108.354 770.253,108.188 777.5,109C 772.018,141.392 767.018,173.892 762.5,206.5C 755.468,206.83 748.468,206.497 741.5,205.5C 729.585,184.669 717.419,164.002 705,143.5C 701.28,163.768 697.947,184.101 695,204.5C 688.115,206.441 680.948,207.108 673.5,206.5C 678.76,173.869 683.76,141.203 688.5,108.5 Z"/></g>
<g><path style="opacity:1" fill="#ff924e" d="M 903.5,127.5 C 921.265,126.026 931.265,134.026 933.5,151.5C 931.431,172.066 920.264,184.066 900,187.5C 885.341,185.25 877.841,176.583 877.5,161.5C 879.817,145.197 888.484,133.864 903.5,127.5 Z"/></g>
<g><path style="opacity:1" fill="#ff9452" d="M 295.5,136.5 C 298.783,146.207 301.449,156.207 303.5,166.5C 295.14,166.831 286.807,166.498 278.5,165.5C 284.43,155.97 290.097,146.303 295.5,136.5 Z"/></g>
<g><path style="opacity:1" fill="#8c52ff" d="M 39.5,287.5 C 88.5011,287.333 137.501,287.5 186.5,288C 201.221,291.054 210.387,299.887 214,314.5C 214.667,365.833 214.667,417.167 214,468.5C 209.833,482 201,490.833 187.5,495C 138.167,495.667 88.8333,495.667 39.5,495C 24.7115,490.544 15.8782,480.71 13,465.5C 12.3333,415.5 12.3333,365.5 13,315.5C 16.9477,301.389 25.7811,292.056 39.5,287.5 Z"/></g>
<g><path style="opacity:1" fill="#8c52ff" d="M 829.5,287.5 C 878.834,287.333 928.168,287.5 977.5,288C 992.409,291.909 1001.58,301.409 1005,316.5C 1005.67,366.167 1005.67,415.833 1005,465.5C 1002.15,480.685 993.316,490.518 978.5,495C 929.167,495.667 879.833,495.667 830.5,495C 816.342,491.509 807.509,482.676 804,468.5C 803.333,416.833 803.333,365.167 804,313.5C 808.017,300.318 816.517,291.651 829.5,287.5 Z"/></g>
<g><path style="opacity:1" fill="#000000" d="M 262.5,328.5 C 312.501,328.333 362.501,328.5 412.5,329C 425.667,332.833 434.167,341.333 438,354.5C 438.667,406.167 438.667,457.833 438,509.5C 434.491,523.676 425.658,532.509 411.5,536C 362.167,536.667 312.833,536.667 263.5,536C 249.891,532.058 241.391,523.225 238,509.5C 237.333,457.5 237.333,405.5 238,353.5C 242.352,341.316 250.518,332.983 262.5,328.5 Z"/></g>
<g><path style="opacity:1" fill="#000000" d="M 609.5,328.5 C 659.168,328.333 708.834,328.5 758.5,329C 773.313,332.414 782.479,341.581 786,356.5C 786.667,406.5 786.667,456.5 786,506.5C 783.15,521.685 774.316,531.518 759.5,536C 710.167,536.667 660.833,536.667 611.5,536C 596.67,531.506 587.837,521.673 585,506.5C 584.333,455.833 584.333,405.167 585,354.5C 588.952,341.719 597.118,333.052 609.5,328.5 Z"/></g>
<g><path style="opacity:1" fill="#8c52ff" d="M 41.5,527.5 C 90.1678,527.333 138.834,527.5 187.5,528C 202.334,530.499 211.834,538.999 216,553.5C 216.667,605.167 216.667,656.833 216,708.5C 212.491,722.676 203.658,731.509 189.5,735C 140.167,735.667 90.8333,735.667 41.5,735C 27.891,731.058 19.391,722.225 16,708.5C 15.3333,656.5 15.3333,604.5 16,552.5C 20.4432,539.889 28.9432,531.555 41.5,527.5 Z"/></g>
<g><path style="opacity:1" fill="#8c52ff" d="M 829.5,527.5 C 878.834,527.333 928.168,527.5 977.5,528C 992.409,531.909 1001.58,541.409 1005,556.5C 1005.67,606.167 1005.67,655.833 1005,705.5C 1002.15,720.685 993.316,730.518 978.5,735C 929.167,735.667 879.833,735.667 830.5,735C 816.342,731.509 807.509,722.676 804,708.5C 803.333,656.833 803.333,605.167 804,553.5C 808.017,540.318 816.517,531.651 829.5,527.5 Z"/></g>
<g><path style="opacity:1" fill="#8c52ff" d="M 438.5,537.5 C 488.168,537.333 537.834,537.5 587.5,538C 601.1,541.933 609.6,550.767 613,564.5C 613.667,614.5 613.667,664.5 613,714.5C 610.304,731.53 600.471,741.696 583.5,745C 535.167,745.667 486.833,745.667 438.5,745C 423.265,740.43 414.432,730.263 412,714.5C 411.333,664.5 411.333,614.5 412,564.5C 415.691,550.31 424.524,541.31 438.5,537.5 Z"/></g>
<g><path style="opacity:1" fill="#8c52ff" d="M 39.5,767.5 C 88.5011,767.333 137.501,767.5 186.5,768C 201.221,771.054 210.387,779.887 214,794.5C 214.667,845.833 214.667,897.167 214,948.5C 209.833,962 201,970.833 187.5,975C 138.167,975.667 88.8333,975.667 39.5,975C 24.7115,970.544 15.8782,960.71 13,945.5C 12.3333,895.5 12.3333,845.5 13,795.5C 16.9477,781.389 25.7811,772.056 39.5,767.5 Z"/></g>
<g><path style="opacity:1" fill="#8c52ff" d="M 829.5,767.5 C 878.834,767.333 928.168,767.5 977.5,768C 992.409,771.909 1001.58,781.409 1005,796.5C 1005.67,846.167 1005.67,895.833 1005,945.5C 1002.15,960.685 993.316,970.518 978.5,975C 929.167,975.667 879.833,975.667 830.5,975C 816.342,971.509 807.509,962.676 804,948.5C 803.333,896.833 803.333,845.167 804,793.5C 808.017,780.318 816.517,771.651 829.5,767.5 Z"/></g>
<g><path style="opacity:1" fill="#010101" d="M 440.5,786.5 C 488.168,786.333 535.834,786.5 583.5,787C 599.112,789.945 608.946,799.112 613,814.5C 613.667,864.833 613.667,915.167 613,965.5C 609.861,981.972 600.028,991.805 583.5,995C 535.833,995.667 488.167,995.667 440.5,995C 424.142,991.307 414.642,981.14 412,964.5C 411.333,914.5 411.333,864.5 412,814.5C 416.115,799.551 425.615,790.217 440.5,786.5 Z"/></g>
</svg>
